<svg xmlns="http://www.w3.org/2000/svg" xmlns:xlink="http://www.w3.org/1999/xlink" version="1.1" x="0px" y="0px" viewBox="0 0 100 100" enable-background="new 0 0 100 100" xml:space="preserve"><g><path fill-rule="evenodd" clip-rule="evenodd" d="M34.664,35.846l-4.884,2.82v5.7l4.884,2.75l4.879-2.761l0.005-5.69L34.664,35.846   L34.664,35.846z M63.86,35.846l-4.884,2.82l-0.056,5.708l4.94,2.743l4.885-2.75v-5.7L63.86,35.846L63.86,35.846z M49.161,61.248   l-4.884,2.68v5.7l4.884,2.75l4.885-2.75v-5.7L49.161,61.248L49.161,61.248z M12.547,70.07l26.888-15.585l-0.001-10.066l8.703-5.059   L48.15,7.764L44.294,5.71c-12.149,1.686-22.807,8.186-29.818,17.539l0.053,5.701l-5.017,2.764   c-2.667,5.604-4.08,11.805-4.08,18.326s0.851,12.335,3.27,17.832L12.547,70.07L12.547,70.07z M54.087,94.376   c12.944-1.154,24.283-7.889,31.705-17.767l-0.203-4.412L57.971,56.32l-8.81,4.927l-8.677-4.899L13.414,72.006l0.059,4.224   c7.077,9.285,18.743,16.453,30.835,18.061l4.853-2.774L54.087,94.376L54.087,94.376z M50.203,39.361l8.717,5.009l0.036,10.147   l27.519,15.883l4.243-2.277c2.466-5.494,3.849-11.633,3.849-18.084c0-6.612-1.453-12.895-4.245-18.554l-5.075-2.757l0.103-5.672   C78.085,13.423,66.869,6.841,54.086,5.624l-3.865,2.121L50.203,39.361L50.203,39.361z"></path><rect x="39.436" y="44.35" fill-rule="evenodd" clip-rule="evenodd" width="0.107" height="0.124"></rect><rect x="58.916" y="44.365" fill-rule="evenodd" clip-rule="evenodd" width="0.004" height="0.013"></rect><rect x="49.159" y="61.242" fill-rule="evenodd" clip-rule="evenodd" width="0.004" height="0.012"></rect></g></svg>